<svg id="SvgjsSvg1006" width="915" height="629" xmlns="http://www.w3.org/2000/svg" version="1.1" xmlns:xlink="http://www.w3.org/1999/xlink" xmlns:svgjs="http://svgjs.com/svgjs"><defs id="SvgjsDefs1007"><marker id="SvgjsMarker1042" markerWidth="16" markerHeight="12" refX="16" refY="6" viewBox="0 0 16 12" orient="auto" markerUnits="userSpaceOnUse" stroke-dasharray="0,0"><path id="SvgjsPath1043" d="M0,2 L14,6 L0,11 L0,2" fill="#323232" stroke="#323232" stroke-width="2"></path></marker><marker id="SvgjsMarker1046" markerWidth="16" markerHeight="12" refX="16" refY="6" viewBox="0 0 16 12" orient="auto" markerUnits="userSpaceOnUse" stroke-dasharray="0,0"><path id="SvgjsPath1047" d="M0,2 L14,6 L0,11 L0,2" fill="#323232" stroke="#323232" stroke-width="2"></path></marker><marker id="SvgjsMarker1056" markerWidth="16" markerHeight="12" refX="16" refY="6" viewBox="0 0 16 12" orient="auto" markerUnits="userSpaceOnUse" stroke-dasharray="0,0"><path id="SvgjsPath1057" d="M0,2 L14,6 L0,11 L0,2" fill="#323232" stroke="#323232" stroke-width="2"></path></marker><marker id="SvgjsMarker1064" markerWidth="16" markerHeight="12" refX="16" refY="6" viewBox="0 0 16 12" orient="auto" markerUnits="userSpaceOnUse" stroke-dasharray="0,0"><path id="SvgjsPath1065" d="M0,2 L14,6 L0,11 L0,2" fill="#323232" stroke="#323232" stroke-width="2"></path></marker><marker id="SvgjsMarker1090" markerWidth="16" markerHeight="12" refX="16" refY="6" viewBox="0 0 16 12" orient="auto" markerUnits="userSpaceOnUse" stroke-dasharray="0,0"><path id="SvgjsPath1091" d="M0,2 L14,6 L0,11 L0,2" fill="#323232" stroke="#323232" stroke-width="2"></path></marker><marker id="SvgjsMarker1102" markerWidth="16" markerHeight="12" refX="16" refY="6" viewBox="0 0 16 12" orient="auto" markerUnits="userSpaceOnUse" stroke-dasharray="0,0"><path id="SvgjsPath1103" d="M0,2 L14,6 L0,11 L0,2" fill="#323232" stroke="#323232" stroke-width="2"></path></marker></defs><g id="SvgjsG1008" transform="translate(25,25.000015258789062)"><path id="SvgjsPath1009" d="M 0 0L 100 0L 100 70L 0 70Z" stroke="rgba(50,50,50,1)" stroke-width="2" fill-opacity="1" fill="#ffffff"></path><g id="SvgjsG1010"><text id="SvgjsText1011" font-family="微软雅黑" text-anchor="middle" font-size="13px" width="80px" fill="#323232" font-weight="400" align="middle" lineHeight="125%" anchor="middle" family="微软雅黑" size="13px" weight="400" font-style="" opacity="1" y="25.375" transform="rotate(0)"><tspan id="SvgjsTspan1012" dy="16" x="50"><tspan id="SvgjsTspan1013" style="text-decoration:;">webview</tspan></tspan></text></g></g><g id="SvgjsG1014" transform="translate(263,25.000015258789062)"><path id="SvgjsPath1015" d="M 0 0L 100 0L 100 70L 0 70Z" stroke="rgba(50,50,50,1)" stroke-width="2" fill-opacity="1" fill="#ffffff"></path><g id="SvgjsG1016"><text id="SvgjsText1017" font-family="微软雅黑" text-anchor="middle" font-size="13px" width="80px" fill="#323232" font-weight="400" align="middle" lineHeight="125%" anchor="middle" family="微软雅黑" size="13px" weight="400" font-style="" opacity="1" y="25.375" transform="rotate(0)"><tspan id="SvgjsTspan1018" dy="16" x="50"><tspan id="SvgjsTspan1019" style="text-decoration:;">pywebview</tspan></tspan></text></g></g><g id="SvgjsG1020" transform="translate(501,25.000015258789062)"><path id="SvgjsPath1021" d="M 0 0L 100 0L 100 70L 0 70Z" stroke="rgba(50,50,50,1)" stroke-width="2" fill-opacity="1" fill="#ffffff"></path><g id="SvgjsG1022"><text id="SvgjsText1023" font-family="微软雅黑" text-anchor="middle" font-size="13px" width="80px" fill="#323232" font-weight="400" align="middle" lineHeight="125%" anchor="middle" family="微软雅黑" size="13px" weight="400" font-style="" opacity="1" y="25.375" transform="rotate(0)"><tspan id="SvgjsTspan1024" dy="16" x="50"><tspan id="SvgjsTspan1025" style="text-decoration:;">python</tspan></tspan></text></g></g><g id="SvgjsG1026" transform="translate(150,30.000015258789062)"><path id="SvgjsPath1027" d="M 0 30L 30 0L 30 19.8L 60 19.8L 60 0L 90 30L 60 60L 60 40.2L 30 40.2L 30 60L 0 30Z" stroke="rgba(50,50,50,1)" stroke-width="2" fill-opacity="1" fill="#ffffff"></path><g id="SvgjsG1028"><text id="SvgjsText1029" font-family="微软雅黑" text-anchor="middle" font-size="13px" width="90px" fill="#323232" font-weight="400" align="middle" lineHeight="125%" anchor="middle" family="微软雅黑" size="13px" weight="400" font-style="" opacity="1" y="20.375" transform="rotate(0)"></text></g></g><g id="SvgjsG1030" transform="translate(385.5,30.000015258789062)"><path id="SvgjsPath1031" d="M 0 30L 30 0L 30 19.8L 60 19.8L 60 0L 90 30L 60 60L 60 40.2L 30 40.2L 30 60L 0 30Z" stroke="rgba(50,50,50,1)" stroke-width="2" fill-opacity="1" fill="#ffffff"></path><g id="SvgjsG1032"><text id="SvgjsText1033" font-family="微软雅黑" text-anchor="middle" font-size="13px" width="90px" fill="#323232" font-weight="400" align="middle" lineHeight="125%" anchor="middle" family="微软雅黑" size="13px" weight="400" font-style="" opacity="1" y="20.375" transform="rotate(0)"></text></g></g><g id="SvgjsG1034" transform="translate(501,188.20001220703125)"><path id="SvgjsPath1035" d="M 0 0L 100 0L 100 70L 0 70Z" stroke="rgba(50,50,50,1)" stroke-width="2" fill-opacity="1" fill="#ffffff"></path><g id="SvgjsG1036"><text id="SvgjsText1037" font-family="微软雅黑" text-anchor="middle" font-size="13px" width="80px" fill="#323232" font-weight="400" align="middle" lineHeight="125%" anchor="middle" family="微软雅黑" size="13px" weight="400" font-style="" opacity="1" y="25.375" transform="rotate(0)"><tspan id="SvgjsTspan1038" dy="16" x="50"><tspan id="SvgjsTspan1039" style="text-decoration:;">截图</tspan></tspan></text></g></g><g id="SvgjsG1040"><path id="SvgjsPath1041" d="M551 95.00001525878906L551 141.20001220703125L551 141.20001220703125L551 188.20001220703125" stroke="#323232" stroke-width="2" fill="none" marker-end="url(#SvgjsMarker1042)"></path></g><g id="SvgjsG1044"><path id="SvgjsPath1045" d="M551 258.20001220703125L551 283.50001525878906L551 283.50001525878906L551 309.3000183105469" stroke="#323232" stroke-width="2" fill="none" marker-end="url(#SvgjsMarker1046)"></path></g><g id="SvgjsG1048" transform="translate(475.5,309.3000183105469)"><path id="SvgjsPath1049" d="M 0 48.69999694824219L 75.5 0L 151 48.69999694824219L 75.5 97.39999389648438Z" stroke="rgba(50,50,50,1)" stroke-width="2" fill-opacity="1" fill="#ffffff"></path><g id="SvgjsG1050"><text id="SvgjsText1051" font-family="微软雅黑" text-anchor="middle" font-size="13px" width="131px" fill="#323232" font-weight="400" align="middle" lineHeight="125%" anchor="middle" family="微软雅黑" size="13px" weight="400" font-style="" opacity="1" y="39.56199691772461" transform="rotate(0)"><tspan id="SvgjsTspan1052" dy="16" x="75.5"><tspan id="SvgjsTspan1053" style="text-decoration:;">与上一次截图对比</tspan></tspan></text></g></g><g id="SvgjsG1054"><path id="SvgjsPath1055" d="M626.5 358.00001525878906L708.25 358.00001525878906L708.25 358.00001525878906L790 358.00001525878906" stroke="#323232" stroke-width="2" fill="none" marker-end="url(#SvgjsMarker1056)"></path><rect id="SvgjsRect1058" width="52" height="16" x="682.25" y="350.00001525878906" fill="#ffffff"></rect><text id="SvgjsText1059" font-family="微软雅黑" text-anchor="middle" font-size="13px" width="52px" fill="#323232" font-weight="400" align="top" lineHeight="16px" anchor="middle" family="微软雅黑" size="13px" weight="400" font-style="" opacity="1" y="348.37501525878906" transform="rotate(0)"><tspan id="SvgjsTspan1060" dy="16" x="708.25"><tspan id="SvgjsTspan1061" style="text-decoration:;">超过阈值</tspan></tspan></text></g><g id="SvgjsG1062"><path id="SvgjsPath1063" d="M551 406.70001220703125L551 471.35001373291016L551 471.35001373291016L551 534.0000152587891" stroke="#323232" stroke-width="2" fill="none" marker-end="url(#SvgjsMarker1064)"></path><rect id="SvgjsRect1066" width="65" height="16" x="518.5" y="462.35001373291016" fill="#ffffff"></rect><text id="SvgjsText1067" font-family="微软雅黑" text-anchor="middle" font-size="13px" width="65px" fill="#323232" font-weight="400" align="top" lineHeight="16px" anchor="middle" family="微软雅黑" size="13px" weight="400" font-style="" opacity="1" y="460.72501373291016" transform="rotate(0)"><tspan id="SvgjsTspan1068" dy="16" x="551"><tspan id="SvgjsTspan1069" style="text-decoration:;">未超过阈值</tspan></tspan></text></g><g id="SvgjsG1070" transform="translate(790,323.00001525878906)"><path id="SvgjsPath1071" d="M 0 0L 100 0L 100 70L 0 70Z" stroke="rgba(50,50,50,1)" stroke-width="2" fill-opacity="1" fill="#ffffff"></path><g id="SvgjsG1072"><text id="SvgjsText1073" font-family="微软雅黑" text-anchor="middle" font-size="13px" width="80px" fill="#323232" font-weight="400" align="middle" lineHeight="125%" anchor="middle" family="微软雅黑" size="13px" weight="400" font-style="" opacity="1" y="25.375" transform="rotate(0)"><tspan id="SvgjsTspan1074" dy="16" x="50"><tspan id="SvgjsTspan1075" style="text-decoration:;">OCR识别</tspan></tspan></text></g></g><g id="SvgjsG1076" transform="translate(790,425.20001220703125)"><path id="SvgjsPath1077" d="M 0 0L 100 0L 100 70L 0 70Z" stroke="rgba(50,50,50,1)" stroke-width="2" fill-opacity="1" fill="#ffffff"></path><g id="SvgjsG1078"><text id="SvgjsText1079" font-family="微软雅黑" text-anchor="middle" font-size="13px" width="80px" fill="#323232" font-weight="400" align="middle" lineHeight="125%" anchor="middle" family="微软雅黑" size="13px" weight="400" font-style="" opacity="1" y="25.375" transform="rotate(0)"><tspan id="SvgjsTspan1080" dy="16" x="50"><tspan id="SvgjsTspan1081" style="text-decoration:;">API翻译</tspan></tspan></text></g></g><g id="SvgjsG1082" transform="translate(501,534.0000152587891)"><path id="SvgjsPath1083" d="M 0 0L 100 0L 100 70L 0 70Z" stroke="rgba(50,50,50,1)" stroke-width="2" fill-opacity="1" fill="#ffffff"></path><g id="SvgjsG1084"><text id="SvgjsText1085" font-family="微软雅黑" text-anchor="middle" font-size="13px" width="80px" fill="#323232" font-weight="400" align="middle" lineHeight="125%" anchor="middle" family="微软雅黑" size="13px" weight="400" font-style="" opacity="1" y="25.375" transform="rotate(0)"><tspan id="SvgjsTspan1086" dy="16" x="50"><tspan id="SvgjsTspan1087" style="text-decoration:;">返回缓存</tspan></tspan></text></g></g><g id="SvgjsG1088"><path id="SvgjsPath1089" d="M840 393.00001525878906L840 408.85001373291016L840 408.85001373291016L840 425.20001220703125" stroke="#323232" stroke-width="2" fill="none" marker-end="url(#SvgjsMarker1090)"></path></g><g id="SvgjsG1092" transform="translate(790,534.0000152587891)"><path id="SvgjsPath1093" d="M 0 0L 100 0L 100 70L 0 70Z" stroke="rgba(50,50,50,1)" stroke-width="2" fill-opacity="1" fill="#ffffff"></path><g id="SvgjsG1094"><text id="SvgjsText1095" font-family="微软雅黑" text-anchor="middle" font-size="13px" width="80px" fill="#323232" font-weight="400" align="middle" lineHeight="125%" anchor="middle" family="微软雅黑" size="13px" weight="400" font-style="" opacity="1" y="16.875" transform="rotate(0)"><tspan id="SvgjsTspan1096" dy="16" x="50"><tspan id="SvgjsTspan1097" style="text-decoration:;">compose</tspan></tspan><tspan id="SvgjsTspan1098" dy="16" x="50"><tspan id="SvgjsTspan1099" style="text-decoration:;">合成并返回</tspan></tspan></text></g></g><g id="SvgjsG1100"><path id="SvgjsPath1101" d="M840 495.20001220703125L840 511.70001220703125L840 511.70001220703125L840 534.0000152587891" stroke="#323232" stroke-width="2" fill="none" marker-end="url(#SvgjsMarker1102)"></path></g></svg>